<svg version="1.0" preserveAspectRatio="xMidYMid meet" viewBox="240 203.999990888 1098 1076.999951894" zoomAndPan="magnify" xmlns:xlink="http://www.w3.org/1999/xlink" xmlns="http://www.w3.org/2000/svg" style="max-height: 500px" width="1098" height="1076.999951894"><defs><g/><clipPath id="27b099533f"><path clip-rule="nonzero" d="M 638.96875 358.429688 L 1102.46875 358.429688 L 1102.46875 821.929688 L 638.96875 821.929688 Z M 638.96875 358.429688"/></clipPath><clipPath id="6f94548e71"><rect height="647" y="0" width="929" x="0"/></clipPath><clipPath id="0e237a0811"><rect height="82" y="0" width="571" x="0"/></clipPath></defs><rect fill-opacity="1" height="1799.99992" y="-149.999993" fill="#ffffff" width="1800" x="-150"/><rect fill-opacity="1" height="1799.99992" y="-149.999993" fill="#ffffff" width="1800" x="-150"/><g clip-path="url(#27b099533f)"><path fill-rule="evenodd" fill-opacity="1" d="M 870.613281 358.351562 C 998.515625 358.351562 1102.183594 462.035156 1102.183594 589.921875 C 1102.183594 687.527344 1041.789062 771.019531 956.324219 805.101562 L 952.945312 732.132812 L 952.945312 731.996094 C 953.132812 717.558594 959.226562 706.195312 972.746094 700.472656 L 974.480469 699.773438 L 974.574219 699.746094 L 974.683594 699.699219 L 974.855469 699.636719 C 984.808594 695.605469 992.917969 690.175781 998.4375 680.78125 C 1005.335938 669.074219 1006.671875 653.476562 1006.671875 640.203125 C 1006.671875 614.683594 999.152344 584.558594 986.1875 562.492188 C 976.976562 546.816406 962.449219 530.957031 942.835938 530.957031 C 923.222656 530.957031 908.695312 546.816406 899.484375 562.492188 C 886.523438 584.558594 879 614.683594 879 640.203125 C 879 653.492188 880.335938 669.089844 887.234375 680.78125 C 892.816406 690.238281 901.019531 695.683594 911.019531 699.714844 C 911.300781 699.820312 911.578125 699.945312 911.855469 700.054688 L 911.933594 700.054688 L 912.804688 700.425781 C 926.371094 706.132812 932.539062 717.375 932.726562 731.996094 L 932.726562 732.132812 L 928.929688 814.09375 C 910.292969 818.933594 890.753906 821.503906 870.613281 821.503906 C 849.757812 821.503906 829.554688 818.730469 810.328125 813.566406 L 806.777344 736.832031 L 806.777344 736.660156 C 806.964844 721.871094 813.277344 710.210938 827.121094 704.347656 L 828.890625 703.652344 L 828.953125 703.636719 L 829.011719 703.605469 L 829.214844 703.527344 C 838.984375 699.574219 846.953125 694.253906 852.378906 685.03125 C 859.1875 673.480469 860.488281 657.988281 860.488281 644.886719 C 860.488281 643.617188 860.441406 642.34375 860.363281 641.074219 C 860.316406 640.34375 860.257812 639.617188 860.164062 638.902344 L 860.039062 637.832031 L 860.242188 637.105469 L 851.820312 539.160156 L 843.015625 539.175781 L 842.253906 642.6875 L 827.585938 644.144531 L 818.875 527.140625 L 809.320312 527.714844 L 807.429688 645.585938 L 802.234375 645.800781 C 801.152344 645.847656 800.066406 645.863281 798.996094 645.863281 C 797.910156 645.863281 796.808594 645.847656 795.722656 645.800781 L 790.5625 645.585938 L 787.910156 527.714844 L 778.359375 527.15625 L 770.402344 644.160156 L 755.722656 642.703125 L 754.976562 539.175781 L 746.125 539.175781 L 734.742188 637.152344 L 734.929688 637.847656 L 734.804688 638.886719 C 734.726562 639.617188 734.664062 640.34375 734.617188 641.074219 C 734.539062 642.34375 734.496094 643.617188 734.496094 644.886719 C 734.496094 657.988281 735.796875 673.480469 742.605469 685.03125 C 748.078125 694.332031 756.140625 699.652344 765.96875 703.605469 C 766.203125 703.699219 766.433594 703.792969 766.652344 703.882812 L 766.730469 703.882812 L 767.753906 704.320312 C 781.628906 710.164062 788.003906 721.699219 788.203125 736.660156 L 788.203125 736.832031 L 785.039062 805.210938 C 699.46875 771.191406 638.984375 687.636719 638.984375 589.9375 C 639.046875 462.019531 742.710938 358.351562 870.613281 358.351562" fill="#7a1e1e"/></g><g transform="matrix(1, 0, 0, 1, 276, 498)"><g clip-path="url(#6f94548e71)"><g fill-opacity="0.1882" fill="#462009"><g transform="translate(13.543623, 454.165858)"><g><path d="M 345.546875 -291.703125 C 359.535156 -282.597656 369.710938 -271.210938 376.078125 -257.546875 C 382.453125 -243.890625 384.484375 -229.441406 382.171875 -214.203125 C 379.140625 -195.585938 372.378906 -178.957031 361.890625 -164.3125 C 351.460938 -149.789062 339.484375 -136.789062 325.953125 -125.3125 C 314.796875 -115.738281 303.195312 -106.8125 291.15625 -98.53125 C 279.113281 -90.25 266.757812 -82.414062 254.09375 -75.03125 C 237.59375 -65.332031 220.832031 -55.828125 203.8125 -46.515625 C 196.414062 -42.429688 189.023438 -38.375 181.640625 -34.34375 C 181.304688 -34.019531 180.941406 -33.722656 180.546875 -33.453125 C 179.492188 -32.859375 178.472656 -32.429688 177.484375 -32.171875 C 173.253906 -30.710938 170.347656 -28.628906 168.765625 -25.921875 C 167.179688 -23.222656 166.351562 -20.109375 166.28125 -16.578125 C 166.21875 -13.046875 166.382812 -9.367188 166.78125 -5.546875 C 166.914062 -3.691406 167.941406 -2.40625 169.859375 -1.6875 C 171.898438 -0.957031 174.007812 -0.363281 176.1875 0.09375 C 185.757812 2.144531 195.328125 4.09375 204.890625 5.9375 C 220.859375 9.300781 236.894531 12.632812 253 15.9375 C 270.75 19.5625 288.46875 23.289062 306.15625 27.125 C 316.914062 29.4375 327.738281 31.742188 338.625 34.046875 C 341.65625 34.773438 344.625 35.367188 347.53125 35.828125 C 350.894531 36.554688 354.226562 37.285156 357.53125 38.015625 C 360.039062 38.410156 362.515625 39.132812 364.953125 40.1875 C 365.679688 40.582031 366.304688 41.109375 366.828125 41.765625 C 367.359375 42.429688 367.523438 43.257812 367.328125 44.25 C 367.191406 45.164062 366.875 45.722656 366.375 45.921875 C 365.882812 46.117188 365.34375 46.21875 364.75 46.21875 C 362.707031 46.351562 360.597656 46.222656 358.421875 45.828125 C 349.316406 44.242188 340.175781 42.726562 331 41.28125 C 315.757812 38.90625 300.515625 36.132812 285.265625 32.96875 C 260.722656 27.75 236.175781 22.597656 211.625 17.515625 C 206.414062 16.460938 201.140625 15.375 195.796875 14.25 C 187.941406 12.46875 179.953125 10.953125 171.828125 9.703125 C 168.335938 8.972656 166.59375 10.488281 166.59375 14.25 C 166.457031 16.820312 166.390625 19.363281 166.390625 21.875 C 166.390625 23.195312 166.390625 24.484375 166.390625 25.734375 C 165.929688 68.160156 165.503906 110.625 165.109375 153.125 C 165.109375 153.59375 165.109375 154.125 165.109375 154.71875 C 165.109375 156.300781 165.007812 157.882812 164.8125 159.46875 C 164.539062 163.425781 162.363281 165.109375 158.28125 164.515625 C 154.125 163.921875 151.8125 161.742188 151.34375 157.984375 C 151.082031 156.066406 151.015625 154.1875 151.140625 152.34375 C 151.140625 152.007812 151.140625 151.773438 151.140625 151.640625 C 151.015625 129.273438 150.785156 107.269531 150.453125 85.625 C 150.191406 63.71875 150.0625 41.445312 150.0625 18.8125 C 150.0625 17.820312 150.0625 16.734375 150.0625 15.546875 C 149.925781 13.628906 149.925781 11.742188 150.0625 9.890625 C 150.1875 6.523438 148.664062 4.117188 145.5 2.671875 C 145.175781 2.535156 144.816406 2.40625 144.421875 2.28125 C 141.910156 1.21875 139.5 -0.0351562 137.1875 -1.484375 C 130.394531 -5.972656 128.8125 -11.414062 132.4375 -17.8125 C 135.144531 -22.300781 138.773438 -25.832031 143.328125 -28.40625 C 146.035156 -29.863281 147.863281 -31.757812 148.8125 -34.09375 C 149.769531 -36.4375 150.25 -39.257812 150.25 -42.5625 C 150.125 -79.445312 150.125 -116.335938 150.25 -153.234375 C 150.25 -162.203125 150.25 -171.207031 150.25 -180.25 C 150.25 -180.644531 150.25 -181.140625 150.25 -181.734375 C 150.25 -185.097656 150.316406 -188.363281 150.453125 -191.53125 C 150.910156 -195.625 153.617188 -197.304688 158.578125 -196.578125 C 163.328125 -195.984375 165.765625 -193.507812 165.890625 -189.15625 C 165.890625 -186.519531 165.890625 -183.976562 165.890625 -181.53125 C 165.890625 -180.675781 165.890625 -179.820312 165.890625 -178.96875 C 166.085938 -158.769531 166.1875 -138.640625 166.1875 -118.578125 C 166.1875 -98.710938 166.253906 -78.816406 166.390625 -58.890625 C 166.390625 -58.765625 166.390625 -58.632812 166.390625 -58.5 C 166.390625 -55.132812 166.457031 -51.867188 166.59375 -48.703125 C 166.851562 -45.535156 168.535156 -44.507812 171.640625 -45.625 C 172.628906 -46.09375 173.617188 -46.625 174.609375 -47.21875 C 174.804688 -47.21875 174.90625 -47.21875 174.90625 -47.21875 C 192.851562 -56.78125 210.648438 -66.707031 228.296875 -77 C 245.953125 -87.300781 263.128906 -98.320312 279.828125 -110.0625 C 291.304688 -118.050781 302.273438 -126.664062 312.734375 -135.90625 C 323.191406 -145.144531 332.679688 -155.40625 341.203125 -166.6875 C 350.503906 -178.757812 357.265625 -192.285156 361.484375 -207.265625 C 364.253906 -217.097656 364.984375 -227.460938 363.671875 -238.359375 C 361.359375 -254.921875 353.601562 -268.941406 340.40625 -280.421875 C 334.132812 -285.765625 327.367188 -290.050781 320.109375 -293.28125 C 293.515625 -305.757812 266.90625 -312.144531 240.28125 -312.4375 C 213.65625 -312.738281 188.035156 -308.414062 163.421875 -299.46875 C 138.804688 -290.53125 116.269531 -278.375 95.8125 -263 C 75.351562 -247.625 57.867188 -230.398438 43.359375 -211.328125 C 37.679688 -204.796875 32.726562 -197.703125 28.5 -190.046875 C 25.601562 -185.234375 23.03125 -180.285156 20.78125 -175.203125 C 18.539062 -170.117188 17.054688 -164.609375 16.328125 -158.671875 C 16.203125 -157.222656 15.660156 -156.203125 14.703125 -155.609375 C 13.742188 -155.015625 12.601562 -154.816406 11.28125 -155.015625 C 9.5625 -155.015625 7.910156 -155.273438 6.328125 -155.796875 C 2.960938 -156.984375 1.21875 -159.328125 1.09375 -162.828125 C 0.957031 -167.441406 1.75 -171.863281 3.46875 -176.09375 C 9.144531 -191.800781 17.359375 -205.820312 28.109375 -218.15625 C 44.671875 -237.5625 64.203125 -255.066406 86.703125 -270.671875 C 109.210938 -286.273438 133.628906 -298.613281 159.953125 -307.6875 C 186.285156 -316.757812 213.539062 -321.195312 241.71875 -321 C 269.894531 -320.800781 297.90625 -314.664062 325.75 -302.59375 C 332.613281 -299.5625 339.210938 -295.929688 345.546875 -291.703125 Z M 345.546875 -291.703125"/></g></g></g><g fill-opacity="0.1882" fill="#462009"><g transform="translate(321.466082, 454.165858)"><g><path d="M 112 -50.875 C 110.1875 -45.332031 106.585938 -38.976562 101.203125 -31.8125 C 95.828125 -24.65625 89.113281 -20.054688 81.0625 -18.015625 C 73.007812 -15.972656 66.046875 -16.253906 60.171875 -18.859375 C 54.304688 -21.460938 51.078125 -28.441406 50.484375 -39.796875 C 43.816406 -26.859375 37.460938 -18.570312 31.421875 -14.9375 C 25.390625 -11.3125 19.109375 -9.929688 12.578125 -10.796875 C 5.179688 -11.984375 0.179688 -14.851562 -2.421875 -19.40625 C -5.023438 -23.957031 -5.898438 -29.21875 -5.046875 -35.1875 C -4.191406 -41.15625 -2.378906 -46.878906 0.390625 -52.359375 C 2.566406 -56.453125 5.585938 -60.242188 9.453125 -63.734375 C 13.316406 -67.234375 17.359375 -69.976562 21.578125 -71.96875 C 26.785156 -74.601562 32.03125 -75.851562 37.3125 -75.71875 C 42.59375 -75.59375 48.238281 -73.84375 54.25 -70.46875 C 54.375 -70.34375 54.4375 -70.476562 54.4375 -70.875 C 54.4375 -71.46875 54.582031 -72.207031 54.875 -73.09375 C 55.175781 -73.988281 55.691406 -74.703125 56.421875 -75.234375 C 58.398438 -76.679688 60.738281 -77.40625 63.4375 -77.40625 C 66.144531 -77.40625 68.226562 -76.050781 69.6875 -73.34375 C 69.945312 -69.84375 69.582031 -65.390625 68.59375 -59.984375 C 66.414062 -48.109375 66.414062 -39.5625 68.59375 -34.34375 C 70.769531 -29.132812 74.613281 -26.707031 80.125 -27.0625 C 85.632812 -27.425781 92.773438 -32.867188 101.546875 -43.390625 C 110.328125 -53.921875 113.8125 -56.414062 112 -50.875 Z M 14.546875 -22.96875 C 17.585938 -20.789062 21.070312 -21.085938 25 -23.859375 C 28.925781 -26.628906 32.703125 -30.550781 36.328125 -35.625 C 39.953125 -40.707031 43 -45.789062 45.46875 -50.875 C 47.945312 -55.957031 49.320312 -59.71875 49.59375 -62.15625 C 42.195312 -66.113281 35.859375 -66.789062 30.578125 -64.1875 C 25.304688 -61.582031 21.101562 -57.328125 17.96875 -51.421875 C 14.832031 -45.515625 12.96875 -39.769531 12.375 -34.1875 C 11.78125 -28.613281 12.503906 -24.875 14.546875 -22.96875 Z M 14.546875 -22.96875"/></g></g></g><g fill-opacity="0.1882" fill="#462009"><g transform="translate(426.383399, 454.165858)"><g><path d="M 60.078125 -54.046875 C 60.078125 -52.523438 56.875 -49.832031 50.46875 -45.96875 C 44.070312 -42.113281 39.359375 -39.210938 36.328125 -37.265625 C 33.296875 -35.316406 31.78125 -34.113281 31.78125 -33.65625 C 32.375 -32.332031 33 -30.117188 33.65625 -27.015625 C 34.3125 -23.921875 34.554688 -20.554688 34.390625 -16.921875 C 34.234375 -13.296875 33.0625 -10.0625 30.875 -7.21875 C 28.695312 -4.382812 25.070312 -2.671875 20 -2.078125 C 14.914062 -1.679688 10.375 -2.457031 6.375 -4.40625 C 2.382812 -6.351562 -0.117188 -9.171875 -1.140625 -12.859375 C -2.160156 -16.554688 -0.921875 -20.878906 2.578125 -25.828125 C 4.878906 -28.597656 7.648438 -31.007812 10.890625 -33.0625 C 12.015625 -33.789062 13.171875 -34.582031 14.359375 -35.4375 C 10.460938 -39.65625 6.765625 -43.972656 3.265625 -48.390625 C -0.234375 -52.816406 -2.476562 -56.78125 -3.46875 -60.28125 C -4.519531 -64.300781 -3.84375 -68.09375 -1.4375 -71.65625 C 0.96875 -75.226562 5.144531 -77.3125 11.09375 -77.90625 C 13.988281 -78.164062 16.707031 -78.015625 19.25 -77.453125 C 21.789062 -76.890625 24.148438 -75.65625 26.328125 -73.75 C 26.785156 -73.28125 27.113281 -72.765625 27.3125 -72.203125 C 27.507812 -71.648438 27.410156 -70.941406 27.015625 -70.078125 C 26.296875 -68.753906 25.207031 -68.09375 23.75 -68.09375 C 22.695312 -68.09375 21.675781 -68.226562 20.6875 -68.5 C 19.632812 -68.957031 18.675781 -69.382812 17.8125 -69.78125 C 17.21875 -70.113281 16.660156 -70.410156 16.140625 -70.671875 C 14.222656 -71.398438 12.753906 -71.300781 11.734375 -70.375 C 10.710938 -69.445312 10.203125 -68.03125 10.203125 -66.125 C 10.328125 -62.757812 11.707031 -59.160156 14.34375 -55.328125 C 16.988281 -51.503906 19.597656 -47.972656 22.171875 -44.734375 C 23.222656 -43.617188 24.113281 -42.53125 24.84375 -41.46875 C 25.570312 -40.75 27.484375 -40.863281 30.578125 -41.8125 C 33.679688 -42.769531 39.375 -45.425781 47.65625 -49.78125 C 55.9375 -54.144531 60.078125 -55.566406 60.078125 -54.046875 Z M 15.84375 -9.5 C 17.75 -9.632812 19 -10.691406 19.59375 -12.671875 C 20.1875 -14.648438 20.398438 -16.828125 20.234375 -19.203125 C 20.078125 -21.578125 19.929688 -23.359375 19.796875 -24.546875 C 19.535156 -25.273438 19.070312 -25.738281 18.40625 -25.9375 C 17.75 -26.132812 17.125 -26.097656 16.53125 -25.828125 C 14.351562 -24.117188 12.753906 -21.941406 11.734375 -19.296875 C 10.710938 -16.660156 10.796875 -14.351562 11.984375 -12.375 C 12.378906 -11.644531 12.90625 -11.015625 13.5625 -10.484375 C 14.21875 -9.960938 14.976562 -9.632812 15.84375 -9.5 Z M 15.84375 -9.5"/></g></g></g><g fill-opacity="0.1882" fill="#462009"><g transform="translate(479.732895, 454.165858)"><g><path d="M 73.15625 -51.765625 C 78.101562 -53.085938 80.097656 -53.019531 79.140625 -51.5625 C 78.179688 -50.113281 74.960938 -48.664062 69.484375 -47.21875 C 65.390625 -46.15625 61.859375 -45.625 58.890625 -45.625 C 55.921875 -45.625 53.21875 -46.582031 50.78125 -48.5 C 50.1875 -46.457031 49.59375 -44.476562 49 -42.5625 C 47.8125 -38.664062 46.65625 -34.972656 45.53125 -31.484375 C 44.082031 -26.398438 41.972656 -21.613281 39.203125 -17.125 C 36.890625 -13.363281 33.832031 -10.820312 30.03125 -9.5 C 26.238281 -8.175781 22.53125 -8.207031 18.90625 -9.59375 C 15.28125 -10.988281 12.3125 -13.796875 10 -18.015625 C 7.09375 -24.085938 5.144531 -30.457031 4.15625 -37.125 C 1.976562 -47.019531 0.660156 -57.046875 0.203125 -67.203125 C 0.0664062 -69.515625 0.128906 -71.757812 0.390625 -73.9375 C 0.859375 -76.84375 2.675781 -78.296875 5.84375 -78.296875 C 8.21875 -78.160156 9.648438 -76.753906 10.140625 -74.078125 C 10.640625 -71.410156 10.890625 -68.691406 10.890625 -65.921875 C 10.890625 -64.867188 10.957031 -63.976562 11.09375 -63.25 C 11.09375 -62.257812 11.421875 -58.972656 12.078125 -53.390625 C 12.734375 -47.816406 13.722656 -41.863281 15.046875 -35.53125 C 16.367188 -29.195312 17.96875 -24.363281 19.84375 -21.03125 C 21.726562 -17.695312 23.957031 -17.78125 26.53125 -21.28125 C 29.03125 -25.039062 30.78125 -29.097656 31.78125 -33.453125 C 34.28125 -42.160156 36.617188 -50.875 38.796875 -59.59375 C 39.660156 -63.675781 41.3125 -67.367188 43.75 -70.671875 C 46.382812 -73.910156 49.816406 -74.703125 54.046875 -73.046875 C 55.035156 -72.785156 55.828125 -72.289062 56.421875 -71.5625 C 57.015625 -70.832031 57.210938 -70.039062 57.015625 -69.1875 C 56.878906 -68.132812 56.679688 -67.046875 56.421875 -65.921875 C 55.691406 -63.742188 55.144531 -61.566406 54.78125 -59.390625 C 54.425781 -57.210938 54.546875 -55.53125 55.140625 -54.34375 C 56.128906 -52.894531 58.503906 -51.890625 62.265625 -51.328125 C 66.023438 -50.765625 69.65625 -50.910156 73.15625 -51.765625 Z M 73.15625 -51.765625"/></g></g></g><g fill-opacity="0.1882" fill="#462009"><g transform="translate(553.076067, 454.165858)"><g><path d="M 112 -50.875 C 110.1875 -45.332031 106.585938 -38.976562 101.203125 -31.8125 C 95.828125 -24.65625 89.113281 -20.054688 81.0625 -18.015625 C 73.007812 -15.972656 66.046875 -16.253906 60.171875 -18.859375 C 54.304688 -21.460938 51.078125 -28.441406 50.484375 -39.796875 C 43.816406 -26.859375 37.460938 -18.570312 31.421875 -14.9375 C 25.390625 -11.3125 19.109375 -9.929688 12.578125 -10.796875 C 5.179688 -11.984375 0.179688 -14.851562 -2.421875 -19.40625 C -5.023438 -23.957031 -5.898438 -29.21875 -5.046875 -35.1875 C -4.191406 -41.15625 -2.378906 -46.878906 0.390625 -52.359375 C 2.566406 -56.453125 5.585938 -60.242188 9.453125 -63.734375 C 13.316406 -67.234375 17.359375 -69.976562 21.578125 -71.96875 C 26.785156 -74.601562 32.03125 -75.851562 37.3125 -75.71875 C 42.59375 -75.59375 48.238281 -73.84375 54.25 -70.46875 C 54.375 -70.34375 54.4375 -70.476562 54.4375 -70.875 C 54.4375 -71.46875 54.582031 -72.207031 54.875 -73.09375 C 55.175781 -73.988281 55.691406 -74.703125 56.421875 -75.234375 C 58.398438 -76.679688 60.738281 -77.40625 63.4375 -77.40625 C 66.144531 -77.40625 68.226562 -76.050781 69.6875 -73.34375 C 69.945312 -69.84375 69.582031 -65.390625 68.59375 -59.984375 C 66.414062 -48.109375 66.414062 -39.5625 68.59375 -34.34375 C 70.769531 -29.132812 74.613281 -26.707031 80.125 -27.0625 C 85.632812 -27.425781 92.773438 -32.867188 101.546875 -43.390625 C 110.328125 -53.921875 113.8125 -56.414062 112 -50.875 Z M 14.546875 -22.96875 C 17.585938 -20.789062 21.070312 -21.085938 25 -23.859375 C 28.925781 -26.628906 32.703125 -30.550781 36.328125 -35.625 C 39.953125 -40.707031 43 -45.789062 45.46875 -50.875 C 47.945312 -55.957031 49.320312 -59.71875 49.59375 -62.15625 C 42.195312 -66.113281 35.859375 -66.789062 30.578125 -64.1875 C 25.304688 -61.582031 21.101562 -57.328125 17.96875 -51.421875 C 14.832031 -45.515625 12.96875 -39.769531 12.375 -34.1875 C 11.78125 -28.613281 12.503906 -24.875 14.546875 -22.96875 Z M 14.546875 -22.96875"/></g></g></g><g fill-opacity="0.1882" fill="#462009"><g transform="translate(657.993385, 454.165858)"><g><path d="M 112 -50.875 C 110.1875 -45.332031 106.585938 -38.976562 101.203125 -31.8125 C 95.828125 -24.65625 89.113281 -20.054688 81.0625 -18.015625 C 73.007812 -15.972656 66.046875 -16.253906 60.171875 -18.859375 C 54.304688 -21.460938 51.078125 -28.441406 50.484375 -39.796875 C 43.816406 -26.859375 37.460938 -18.570312 31.421875 -14.9375 C 25.390625 -11.3125 19.109375 -9.929688 12.578125 -10.796875 C 5.179688 -11.984375 0.179688 -14.851562 -2.421875 -19.40625 C -5.023438 -23.957031 -5.898438 -29.21875 -5.046875 -35.1875 C -4.191406 -41.15625 -2.378906 -46.878906 0.390625 -52.359375 C 2.566406 -56.453125 5.585938 -60.242188 9.453125 -63.734375 C 13.316406 -67.234375 17.359375 -69.976562 21.578125 -71.96875 C 26.785156 -74.601562 32.03125 -75.851562 37.3125 -75.71875 C 42.59375 -75.59375 48.238281 -73.84375 54.25 -70.46875 C 54.375 -70.34375 54.4375 -70.476562 54.4375 -70.875 C 54.4375 -71.46875 54.582031 -72.207031 54.875 -73.09375 C 55.175781 -73.988281 55.691406 -74.703125 56.421875 -75.234375 C 58.398438 -76.679688 60.738281 -77.40625 63.4375 -77.40625 C 66.144531 -77.40625 68.226562 -76.050781 69.6875 -73.34375 C 69.945312 -69.84375 69.582031 -65.390625 68.59375 -59.984375 C 66.414062 -48.109375 66.414062 -39.5625 68.59375 -34.34375 C 70.769531 -29.132812 74.613281 -26.707031 80.125 -27.0625 C 85.632812 -27.425781 92.773438 -32.867188 101.546875 -43.390625 C 110.328125 -53.921875 113.8125 -56.414062 112 -50.875 Z M 14.546875 -22.96875 C 17.585938 -20.789062 21.070312 -21.085938 25 -23.859375 C 28.925781 -26.628906 32.703125 -30.550781 36.328125 -35.625 C 39.953125 -40.707031 43 -45.789062 45.46875 -50.875 C 47.945312 -55.957031 49.320312 -59.71875 49.59375 -62.15625 C 42.195312 -66.113281 35.859375 -66.789062 30.578125 -64.1875 C 25.304688 -61.582031 21.101562 -57.328125 17.96875 -51.421875 C 14.832031 -45.515625 12.96875 -39.769531 12.375 -34.1875 C 11.78125 -28.613281 12.503906 -24.875 14.546875 -22.96875 Z M 14.546875 -22.96875"/></g></g></g><g fill-opacity="0.1882" fill="#462009"><g transform="translate(762.910702, 454.165858)"><g><path d="M 155.3125 -48.296875 C 155.90625 -49.421875 156.8125 -50.015625 158.03125 -50.078125 C 159.25 -50.148438 160.285156 -49.394531 161.140625 -47.8125 C 161.472656 -47.414062 161.160156 -46.304688 160.203125 -44.484375 C 159.242188 -42.671875 157.972656 -40.625 156.390625 -38.34375 C 154.804688 -36.070312 153.285156 -33.992188 151.828125 -32.109375 C 150.378906 -30.234375 149.359375 -29 148.765625 -28.40625 C 142.234375 -21.144531 135.664062 -15.816406 129.0625 -12.421875 C 122.46875 -9.023438 115.3125 -8.300781 107.59375 -10.25 C 99.875 -12.195312 91.226562 -17.6875 81.65625 -26.71875 C 80.207031 -28.300781 78.757812 -29.890625 77.3125 -31.484375 C 76.914062 -31.941406 76.550781 -32.367188 76.21875 -32.765625 C 74.632812 -34.546875 72.882812 -34.773438 70.96875 -33.453125 C 68.988281 -32.003906 66.976562 -30.550781 64.9375 -29.09375 C 63.15625 -27.78125 61.335938 -26.5625 59.484375 -25.4375 C 53.347656 -21.21875 46.882812 -17.65625 40.09375 -14.75 C 32.832031 -11.507812 25.207031 -10.253906 17.21875 -10.984375 C 4.75 -12.441406 -1.710938 -19.335938 -2.171875 -31.671875 C -2.304688 -40.378906 -0.445312 -48.179688 3.40625 -55.078125 C 7.269531 -61.972656 12.648438 -67.054688 19.546875 -70.328125 C 26.441406 -73.597656 34.378906 -74.242188 43.359375 -72.265625 C 44.347656 -72.066406 45.664062 -71.769531 47.3125 -71.375 C 48.300781 -71.039062 49.523438 -70.738281 50.984375 -70.46875 C 50.117188 -72.519531 49.320312 -74.335938 48.59375 -75.921875 C 47.28125 -78.554688 46.128906 -80.960938 45.140625 -83.140625 C 39.128906 -95.484375 34.242188 -109.585938 30.484375 -125.453125 C 26.722656 -141.328125 24.875 -157.613281 24.9375 -174.3125 C 25.007812 -191.007812 27.800781 -206.550781 33.3125 -220.9375 C 38.820312 -235.320312 47.976562 -247.164062 60.78125 -256.46875 C 68.894531 -261.945312 77.273438 -264.914062 85.921875 -265.375 C 94.566406 -265.832031 102.734375 -263.953125 110.421875 -259.734375 C 118.109375 -255.515625 124.359375 -249.179688 129.171875 -240.734375 C 135.378906 -229.117188 139.207031 -216.875 140.65625 -204 C 143.289062 -183.21875 142.859375 -163.816406 139.359375 -145.796875 C 135.867188 -127.785156 129.703125 -110.757812 120.859375 -94.71875 C 112.015625 -78.6875 100.765625 -63.113281 87.109375 -48 C 85.785156 -46.550781 85.085938 -45.394531 85.015625 -44.53125 C 84.953125 -43.675781 85.582031 -42.457031 86.90625 -40.875 C 89.675781 -37.25 92.691406 -33.71875 95.953125 -30.28125 C 99.222656 -26.851562 102.875 -23.984375 106.90625 -21.671875 C 112.582031 -19.234375 118.648438 -19.203125 125.109375 -21.578125 C 131.578125 -23.953125 137.566406 -27.644531 143.078125 -32.65625 C 148.585938 -37.675781 152.664062 -42.890625 155.3125 -48.296875 Z M 58.203125 -39.59375 C 59.921875 -41.039062 60.050781 -42.691406 58.59375 -44.546875 C 57.738281 -45.597656 56.882812 -46.6875 56.03125 -47.8125 C 53.65625 -50.71875 50.945312 -53.703125 47.90625 -56.765625 C 44.875 -59.835938 41.722656 -62.164062 38.453125 -63.75 C 35.191406 -65.332031 31.875 -65.460938 28.5 -64.140625 C 23.882812 -61.960938 20.09375 -58.117188 17.125 -52.609375 C 14.15625 -47.097656 12.40625 -41.4375 11.875 -35.625 C 11.351562 -29.820312 12.476562 -25.398438 15.25 -22.359375 C 18.019531 -19.328125 22.734375 -19.035156 29.390625 -21.484375 C 39.890625 -26.097656 49.492188 -32.132812 58.203125 -39.59375 Z M 80.171875 -61.078125 C 94.097656 -77.503906 104.507812 -93.671875 111.40625 -109.578125 C 118.300781 -125.484375 122.96875 -144.09375 125.40625 -165.40625 C 126.132812 -170.613281 126.460938 -177.441406 126.390625 -185.890625 C 126.328125 -194.335938 125.570312 -203.160156 124.125 -212.359375 C 122.675781 -221.566406 120.066406 -229.945312 116.296875 -237.5 C 112.535156 -245.0625 107.273438 -250.507812 100.515625 -253.84375 C 93.753906 -257.175781 85.09375 -257.160156 74.53125 -253.796875 C 62.914062 -246.992188 54.300781 -237.96875 48.6875 -226.71875 C 43.082031 -215.46875 39.882812 -202.945312 39.09375 -189.15625 C 38.300781 -175.363281 39.207031 -161.273438 41.8125 -146.890625 C 44.425781 -132.503906 48.054688 -118.859375 52.703125 -105.953125 C 57.359375 -93.054688 62.359375 -81.828125 67.703125 -72.265625 C 68.296875 -71.066406 68.890625 -69.875 69.484375 -68.6875 C 71.066406 -64.800781 73.378906 -61.273438 76.421875 -58.109375 C 76.878906 -58.503906 77.335938 -58.863281 77.796875 -59.1875 C 78.660156 -59.71875 79.453125 -60.347656 80.171875 -61.078125 Z M 80.171875 -61.078125"/></g></g></g><g fill-opacity="1" fill="#7a1e1e"><g transform="translate(4.584229, 445.206464)"><g><path d="M 345.546875 -291.703125 C 359.535156 -282.597656 369.710938 -271.210938 376.078125 -257.546875 C 382.453125 -243.890625 384.484375 -229.441406 382.171875 -214.203125 C 379.140625 -195.585938 372.378906 -178.957031 361.890625 -164.3125 C 351.460938 -149.789062 339.484375 -136.789062 325.953125 -125.3125 C 314.796875 -115.738281 303.195312 -106.8125 291.15625 -98.53125 C 279.113281 -90.25 266.757812 -82.414062 254.09375 -75.03125 C 237.59375 -65.332031 220.832031 -55.828125 203.8125 -46.515625 C 196.414062 -42.429688 189.023438 -38.375 181.640625 -34.34375 C 181.304688 -34.019531 180.941406 -33.722656 180.546875 -33.453125 C 179.492188 -32.859375 178.472656 -32.429688 177.484375 -32.171875 C 173.253906 -30.710938 170.347656 -28.628906 168.765625 -25.921875 C 167.179688 -23.222656 166.351562 -20.109375 166.28125 -16.578125 C 166.21875 -13.046875 166.382812 -9.367188 166.78125 -5.546875 C 166.914062 -3.691406 167.941406 -2.40625 169.859375 -1.6875 C 171.898438 -0.957031 174.007812 -0.363281 176.1875 0.09375 C 185.757812 2.144531 195.328125 4.09375 204.890625 5.9375 C 220.859375 9.300781 236.894531 12.632812 253 15.9375 C 270.75 19.5625 288.46875 23.289062 306.15625 27.125 C 316.914062 29.4375 327.738281 31.742188 338.625 34.046875 C 341.65625 34.773438 344.625 35.367188 347.53125 35.828125 C 350.894531 36.554688 354.226562 37.285156 357.53125 38.015625 C 360.039062 38.410156 362.515625 39.132812 364.953125 40.1875 C 365.679688 40.582031 366.304688 41.109375 366.828125 41.765625 C 367.359375 42.429688 367.523438 43.257812 367.328125 44.25 C 367.191406 45.164062 366.875 45.722656 366.375 45.921875 C 365.882812 46.117188 365.34375 46.21875 364.75 46.21875 C 362.707031 46.351562 360.597656 46.222656 358.421875 45.828125 C 349.316406 44.242188 340.175781 42.726562 331 41.28125 C 315.757812 38.90625 300.515625 36.132812 285.265625 32.96875 C 260.722656 27.75 236.175781 22.597656 211.625 17.515625 C 206.414062 16.460938 201.140625 15.375 195.796875 14.25 C 187.941406 12.46875 179.953125 10.953125 171.828125 9.703125 C 168.335938 8.972656 166.59375 10.488281 166.59375 14.25 C 166.457031 16.820312 166.390625 19.363281 166.390625 21.875 C 166.390625 23.195312 166.390625 24.484375 166.390625 25.734375 C 165.929688 68.160156 165.503906 110.625 165.109375 153.125 C 165.109375 153.59375 165.109375 154.125 165.109375 154.71875 C 165.109375 156.300781 165.007812 157.882812 164.8125 159.46875 C 164.539062 163.425781 162.363281 165.109375 158.28125 164.515625 C 154.125 163.921875 151.8125 161.742188 151.34375 157.984375 C 151.082031 156.066406 151.015625 154.1875 151.140625 152.34375 C 151.140625 152.007812 151.140625 151.773438 151.140625 151.640625 C 151.015625 129.273438 150.785156 107.269531 150.453125 85.625 C 150.191406 63.71875 150.0625 41.445312 150.0625 18.8125 C 150.0625 17.820312 150.0625 16.734375 150.0625 15.546875 C 149.925781 13.628906 149.925781 11.742188 150.0625 9.890625 C 150.1875 6.523438 148.664062 4.117188 145.5 2.671875 C 145.175781 2.535156 144.816406 2.40625 144.421875 2.28125 C 141.910156 1.21875 139.5 -0.0351562 137.1875 -1.484375 C 130.394531 -5.972656 128.8125 -11.414062 132.4375 -17.8125 C 135.144531 -22.300781 138.773438 -25.832031 143.328125 -28.40625 C 146.035156 -29.863281 147.863281 -31.757812 148.8125 -34.09375 C 149.769531 -36.4375 150.25 -39.257812 150.25 -42.5625 C 150.125 -79.445312 150.125 -116.335938 150.25 -153.234375 C 150.25 -162.203125 150.25 -171.207031 150.25 -180.25 C 150.25 -180.644531 150.25 -181.140625 150.25 -181.734375 C 150.25 -185.097656 150.316406 -188.363281 150.453125 -191.53125 C 150.910156 -195.625 153.617188 -197.304688 158.578125 -196.578125 C 163.328125 -195.984375 165.765625 -193.507812 165.890625 -189.15625 C 165.890625 -186.519531 165.890625 -183.976562 165.890625 -181.53125 C 165.890625 -180.675781 165.890625 -179.820312 165.890625 -178.96875 C 166.085938 -158.769531 166.1875 -138.640625 166.1875 -118.578125 C 166.1875 -98.710938 166.253906 -78.816406 166.390625 -58.890625 C 166.390625 -58.765625 166.390625 -58.632812 166.390625 -58.5 C 166.390625 -55.132812 166.457031 -51.867188 166.59375 -48.703125 C 166.851562 -45.535156 168.535156 -44.507812 171.640625 -45.625 C 172.628906 -46.09375 173.617188 -46.625 174.609375 -47.21875 C 174.804688 -47.21875 174.90625 -47.21875 174.90625 -47.21875 C 192.851562 -56.78125 210.648438 -66.707031 228.296875 -77 C 245.953125 -87.300781 263.128906 -98.320312 279.828125 -110.0625 C 291.304688 -118.050781 302.273438 -126.664062 312.734375 -135.90625 C 323.191406 -145.144531 332.679688 -155.40625 341.203125 -166.6875 C 350.503906 -178.757812 357.265625 -192.285156 361.484375 -207.265625 C 364.253906 -217.097656 364.984375 -227.460938 363.671875 -238.359375 C 361.359375 -254.921875 353.601562 -268.941406 340.40625 -280.421875 C 334.132812 -285.765625 327.367188 -290.050781 320.109375 -293.28125 C 293.515625 -305.757812 266.90625 -312.144531 240.28125 -312.4375 C 213.65625 -312.738281 188.035156 -308.414062 163.421875 -299.46875 C 138.804688 -290.53125 116.269531 -278.375 95.8125 -263 C 75.351562 -247.625 57.867188 -230.398438 43.359375 -211.328125 C 37.679688 -204.796875 32.726562 -197.703125 28.5 -190.046875 C 25.601562 -185.234375 23.03125 -180.285156 20.78125 -175.203125 C 18.539062 -170.117188 17.054688 -164.609375 16.328125 -158.671875 C 16.203125 -157.222656 15.660156 -156.203125 14.703125 -155.609375 C 13.742188 -155.015625 12.601562 -154.816406 11.28125 -155.015625 C 9.5625 -155.015625 7.910156 -155.273438 6.328125 -155.796875 C 2.960938 -156.984375 1.21875 -159.328125 1.09375 -162.828125 C 0.957031 -167.441406 1.75 -171.863281 3.46875 -176.09375 C 9.144531 -191.800781 17.359375 -205.820312 28.109375 -218.15625 C 44.671875 -237.5625 64.203125 -255.066406 86.703125 -270.671875 C 109.210938 -286.273438 133.628906 -298.613281 159.953125 -307.6875 C 186.285156 -316.757812 213.539062 -321.195312 241.71875 -321 C 269.894531 -320.800781 297.90625 -314.664062 325.75 -302.59375 C 332.613281 -299.5625 339.210938 -295.929688 345.546875 -291.703125 Z M 345.546875 -291.703125"/></g></g></g><g fill-opacity="1" fill="#7a1e1e"><g transform="translate(312.506688, 445.206464)"><g><path d="M 112 -50.875 C 110.1875 -45.332031 106.585938 -38.976562 101.203125 -31.8125 C 95.828125 -24.65625 89.113281 -20.054688 81.0625 -18.015625 C 73.007812 -15.972656 66.046875 -16.253906 60.171875 -18.859375 C 54.304688 -21.460938 51.078125 -28.441406 50.484375 -39.796875 C 43.816406 -26.859375 37.460938 -18.570312 31.421875 -14.9375 C 25.390625 -11.3125 19.109375 -9.929688 12.578125 -10.796875 C 5.179688 -11.984375 0.179688 -14.851562 -2.421875 -19.40625 C -5.023438 -23.957031 -5.898438 -29.21875 -5.046875 -35.1875 C -4.191406 -41.15625 -2.378906 -46.878906 0.390625 -52.359375 C 2.566406 -56.453125 5.585938 -60.242188 9.453125 -63.734375 C 13.316406 -67.234375 17.359375 -69.976562 21.578125 -71.96875 C 26.785156 -74.601562 32.03125 -75.851562 37.3125 -75.71875 C 42.59375 -75.59375 48.238281 -73.84375 54.25 -70.46875 C 54.375 -70.34375 54.4375 -70.476562 54.4375 -70.875 C 54.4375 -71.46875 54.582031 -72.207031 54.875 -73.09375 C 55.175781 -73.988281 55.691406 -74.703125 56.421875 -75.234375 C 58.398438 -76.679688 60.738281 -77.40625 63.4375 -77.40625 C 66.144531 -77.40625 68.226562 -76.050781 69.6875 -73.34375 C 69.945312 -69.84375 69.582031 -65.390625 68.59375 -59.984375 C 66.414062 -48.109375 66.414062 -39.5625 68.59375 -34.34375 C 70.769531 -29.132812 74.613281 -26.707031 80.125 -27.0625 C 85.632812 -27.425781 92.773438 -32.867188 101.546875 -43.390625 C 110.328125 -53.921875 113.8125 -56.414062 112 -50.875 Z M 14.546875 -22.96875 C 17.585938 -20.789062 21.070312 -21.085938 25 -23.859375 C 28.925781 -26.628906 32.703125 -30.550781 36.328125 -35.625 C 39.953125 -40.707031 43 -45.789062 45.46875 -50.875 C 47.945312 -55.957031 49.320312 -59.71875 49.59375 -62.15625 C 42.195312 -66.113281 35.859375 -66.789062 30.578125 -64.1875 C 25.304688 -61.582031 21.101562 -57.328125 17.96875 -51.421875 C 14.832031 -45.515625 12.96875 -39.769531 12.375 -34.1875 C 11.78125 -28.613281 12.503906 -24.875 14.546875 -22.96875 Z M 14.546875 -22.96875"/></g></g></g><g fill-opacity="1" fill="#7a1e1e"><g transform="translate(417.424006, 445.206464)"><g><path d="M 60.078125 -54.046875 C 60.078125 -52.523438 56.875 -49.832031 50.46875 -45.96875 C 44.070312 -42.113281 39.359375 -39.210938 36.328125 -37.265625 C 33.296875 -35.316406 31.78125 -34.113281 31.78125 -33.65625 C 32.375 -32.332031 33 -30.117188 33.65625 -27.015625 C 34.3125 -23.921875 34.554688 -20.554688 34.390625 -16.921875 C 34.234375 -13.296875 33.0625 -10.0625 30.875 -7.21875 C 28.695312 -4.382812 25.070312 -2.671875 20 -2.078125 C 14.914062 -1.679688 10.375 -2.457031 6.375 -4.40625 C 2.382812 -6.351562 -0.117188 -9.171875 -1.140625 -12.859375 C -2.160156 -16.554688 -0.921875 -20.878906 2.578125 -25.828125 C 4.878906 -28.597656 7.648438 -31.007812 10.890625 -33.0625 C 12.015625 -33.789062 13.171875 -34.582031 14.359375 -35.4375 C 10.460938 -39.65625 6.765625 -43.972656 3.265625 -48.390625 C -0.234375 -52.816406 -2.476562 -56.78125 -3.46875 -60.28125 C -4.519531 -64.300781 -3.84375 -68.09375 -1.4375 -71.65625 C 0.96875 -75.226562 5.144531 -77.3125 11.09375 -77.90625 C 13.988281 -78.164062 16.707031 -78.015625 19.25 -77.453125 C 21.789062 -76.890625 24.148438 -75.65625 26.328125 -73.75 C 26.785156 -73.28125 27.113281 -72.765625 27.3125 -72.203125 C 27.507812 -71.648438 27.410156 -70.941406 27.015625 -70.078125 C 26.296875 -68.753906 25.207031 -68.09375 23.75 -68.09375 C 22.695312 -68.09375 21.675781 -68.226562 20.6875 -68.5 C 19.632812 -68.957031 18.675781 -69.382812 17.8125 -69.78125 C 17.21875 -70.113281 16.660156 -70.410156 16.140625 -70.671875 C 14.222656 -71.398438 12.753906 -71.300781 11.734375 -70.375 C 10.710938 -69.445312 10.203125 -68.03125 10.203125 -66.125 C 10.328125 -62.757812 11.707031 -59.160156 14.34375 -55.328125 C 16.988281 -51.503906 19.597656 -47.972656 22.171875 -44.734375 C 23.222656 -43.617188 24.113281 -42.53125 24.84375 -41.46875 C 25.570312 -40.75 27.484375 -40.863281 30.578125 -41.8125 C 33.679688 -42.769531 39.375 -45.425781 47.65625 -49.78125 C 55.9375 -54.144531 60.078125 -55.566406 60.078125 -54.046875 Z M 15.84375 -9.5 C 17.75 -9.632812 19 -10.691406 19.59375 -12.671875 C 20.1875 -14.648438 20.398438 -16.828125 20.234375 -19.203125 C 20.078125 -21.578125 19.929688 -23.359375 19.796875 -24.546875 C 19.535156 -25.273438 19.070312 -25.738281 18.40625 -25.9375 C 17.75 -26.132812 17.125 -26.097656 16.53125 -25.828125 C 14.351562 -24.117188 12.753906 -21.941406 11.734375 -19.296875 C 10.710938 -16.660156 10.796875 -14.351562 11.984375 -12.375 C 12.378906 -11.644531 12.90625 -11.015625 13.5625 -10.484375 C 14.21875 -9.960938 14.976562 -9.632812 15.84375 -9.5 Z M 15.84375 -9.5"/></g></g></g><g fill-opacity="1" fill="#7a1e1e"><g transform="translate(470.773501, 445.206464)"><g><path d="M 73.15625 -51.765625 C 78.101562 -53.085938 80.097656 -53.019531 79.140625 -51.5625 C 78.179688 -50.113281 74.960938 -48.664062 69.484375 -47.21875 C 65.390625 -46.15625 61.859375 -45.625 58.890625 -45.625 C 55.921875 -45.625 53.21875 -46.582031 50.78125 -48.5 C 50.1875 -46.457031 49.59375 -44.476562 49 -42.5625 C 47.8125 -38.664062 46.65625 -34.972656 45.53125 -31.484375 C 44.082031 -26.398438 41.972656 -21.613281 39.203125 -17.125 C 36.890625 -13.363281 33.832031 -10.820312 30.03125 -9.5 C 26.238281 -8.175781 22.53125 -8.207031 18.90625 -9.59375 C 15.28125 -10.988281 12.3125 -13.796875 10 -18.015625 C 7.09375 -24.085938 5.144531 -30.457031 4.15625 -37.125 C 1.976562 -47.019531 0.660156 -57.046875 0.203125 -67.203125 C 0.0664062 -69.515625 0.128906 -71.757812 0.390625 -73.9375 C 0.859375 -76.84375 2.675781 -78.296875 5.84375 -78.296875 C 8.21875 -78.160156 9.648438 -76.753906 10.140625 -74.078125 C 10.640625 -71.410156 10.890625 -68.691406 10.890625 -65.921875 C 10.890625 -64.867188 10.957031 -63.976562 11.09375 -63.25 C 11.09375 -62.257812 11.421875 -58.972656 12.078125 -53.390625 C 12.734375 -47.816406 13.722656 -41.863281 15.046875 -35.53125 C 16.367188 -29.195312 17.96875 -24.363281 19.84375 -21.03125 C 21.726562 -17.695312 23.957031 -17.78125 26.53125 -21.28125 C 29.03125 -25.039062 30.78125 -29.097656 31.78125 -33.453125 C 34.28125 -42.160156 36.617188 -50.875 38.796875 -59.59375 C 39.660156 -63.675781 41.3125 -67.367188 43.75 -70.671875 C 46.382812 -73.910156 49.816406 -74.703125 54.046875 -73.046875 C 55.035156 -72.785156 55.828125 -72.289062 56.421875 -71.5625 C 57.015625 -70.832031 57.210938 -70.039062 57.015625 -69.1875 C 56.878906 -68.132812 56.679688 -67.046875 56.421875 -65.921875 C 55.691406 -63.742188 55.144531 -61.566406 54.78125 -59.390625 C 54.425781 -57.210938 54.546875 -55.53125 55.140625 -54.34375 C 56.128906 -52.894531 58.503906 -51.890625 62.265625 -51.328125 C 66.023438 -50.765625 69.65625 -50.910156 73.15625 -51.765625 Z M 73.15625 -51.765625"/></g></g></g><g fill-opacity="1" fill="#7a1e1e"><g transform="translate(544.116673, 445.206464)"><g><path d="M 112 -50.875 C 110.1875 -45.332031 106.585938 -38.976562 101.203125 -31.8125 C 95.828125 -24.65625 89.113281 -20.054688 81.0625 -18.015625 C 73.007812 -15.972656 66.046875 -16.253906 60.171875 -18.859375 C 54.304688 -21.460938 51.078125 -28.441406 50.484375 -39.796875 C 43.816406 -26.859375 37.460938 -18.570312 31.421875 -14.9375 C 25.390625 -11.3125 19.109375 -9.929688 12.578125 -10.796875 C 5.179688 -11.984375 0.179688 -14.851562 -2.421875 -19.40625 C -5.023438 -23.957031 -5.898438 -29.21875 -5.046875 -35.1875 C -4.191406 -41.15625 -2.378906 -46.878906 0.390625 -52.359375 C 2.566406 -56.453125 5.585938 -60.242188 9.453125 -63.734375 C 13.316406 -67.234375 17.359375 -69.976562 21.578125 -71.96875 C 26.785156 -74.601562 32.03125 -75.851562 37.3125 -75.71875 C 42.59375 -75.59375 48.238281 -73.84375 54.25 -70.46875 C 54.375 -70.34375 54.4375 -70.476562 54.4375 -70.875 C 54.4375 -71.46875 54.582031 -72.207031 54.875 -73.09375 C 55.175781 -73.988281 55.691406 -74.703125 56.421875 -75.234375 C 58.398438 -76.679688 60.738281 -77.40625 63.4375 -77.40625 C 66.144531 -77.40625 68.226562 -76.050781 69.6875 -73.34375 C 69.945312 -69.84375 69.582031 -65.390625 68.59375 -59.984375 C 66.414062 -48.109375 66.414062 -39.5625 68.59375 -34.34375 C 70.769531 -29.132812 74.613281 -26.707031 80.125 -27.0625 C 85.632812 -27.425781 92.773438 -32.867188 101.546875 -43.390625 C 110.328125 -53.921875 113.8125 -56.414062 112 -50.875 Z M 14.546875 -22.96875 C 17.585938 -20.789062 21.070312 -21.085938 25 -23.859375 C 28.925781 -26.628906 32.703125 -30.550781 36.328125 -35.625 C 39.953125 -40.707031 43 -45.789062 45.46875 -50.875 C 47.945312 -55.957031 49.320312 -59.71875 49.59375 -62.15625 C 42.195312 -66.113281 35.859375 -66.789062 30.578125 -64.1875 C 25.304688 -61.582031 21.101562 -57.328125 17.96875 -51.421875 C 14.832031 -45.515625 12.96875 -39.769531 12.375 -34.1875 C 11.78125 -28.613281 12.503906 -24.875 14.546875 -22.96875 Z M 14.546875 -22.96875"/></g></g></g><g fill-opacity="1" fill="#7a1e1e"><g transform="translate(649.033991, 445.206464)"><g><path d="M 112 -50.875 C 110.1875 -45.332031 106.585938 -38.976562 101.203125 -31.8125 C 95.828125 -24.65625 89.113281 -20.054688 81.0625 -18.015625 C 73.007812 -15.972656 66.046875 -16.253906 60.171875 -18.859375 C 54.304688 -21.460938 51.078125 -28.441406 50.484375 -39.796875 C 43.816406 -26.859375 37.460938 -18.570312 31.421875 -14.9375 C 25.390625 -11.3125 19.109375 -9.929688 12.578125 -10.796875 C 5.179688 -11.984375 0.179688 -14.851562 -2.421875 -19.40625 C -5.023438 -23.957031 -5.898438 -29.21875 -5.046875 -35.1875 C -4.191406 -41.15625 -2.378906 -46.878906 0.390625 -52.359375 C 2.566406 -56.453125 5.585938 -60.242188 9.453125 -63.734375 C 13.316406 -67.234375 17.359375 -69.976562 21.578125 -71.96875 C 26.785156 -74.601562 32.03125 -75.851562 37.3125 -75.71875 C 42.59375 -75.59375 48.238281 -73.84375 54.25 -70.46875 C 54.375 -70.34375 54.4375 -70.476562 54.4375 -70.875 C 54.4375 -71.46875 54.582031 -72.207031 54.875 -73.09375 C 55.175781 -73.988281 55.691406 -74.703125 56.421875 -75.234375 C 58.398438 -76.679688 60.738281 -77.40625 63.4375 -77.40625 C 66.144531 -77.40625 68.226562 -76.050781 69.6875 -73.34375 C 69.945312 -69.84375 69.582031 -65.390625 68.59375 -59.984375 C 66.414062 -48.109375 66.414062 -39.5625 68.59375 -34.34375 C 70.769531 -29.132812 74.613281 -26.707031 80.125 -27.0625 C 85.632812 -27.425781 92.773438 -32.867188 101.546875 -43.390625 C 110.328125 -53.921875 113.8125 -56.414062 112 -50.875 Z M 14.546875 -22.96875 C 17.585938 -20.789062 21.070312 -21.085938 25 -23.859375 C 28.925781 -26.628906 32.703125 -30.550781 36.328125 -35.625 C 39.953125 -40.707031 43 -45.789062 45.46875 -50.875 C 47.945312 -55.957031 49.320312 -59.71875 49.59375 -62.15625 C 42.195312 -66.113281 35.859375 -66.789062 30.578125 -64.1875 C 25.304688 -61.582031 21.101562 -57.328125 17.96875 -51.421875 C 14.832031 -45.515625 12.96875 -39.769531 12.375 -34.1875 C 11.78125 -28.613281 12.503906 -24.875 14.546875 -22.96875 Z M 14.546875 -22.96875"/></g></g></g><g fill-opacity="1" fill="#7a1e1e"><g transform="translate(753.951309, 445.206464)"><g><path d="M 155.3125 -48.296875 C 155.90625 -49.421875 156.8125 -50.015625 158.03125 -50.078125 C 159.25 -50.148438 160.285156 -49.394531 161.140625 -47.8125 C 161.472656 -47.414062 161.160156 -46.304688 160.203125 -44.484375 C 159.242188 -42.671875 157.972656 -40.625 156.390625 -38.34375 C 154.804688 -36.070312 153.285156 -33.992188 151.828125 -32.109375 C 150.378906 -30.234375 149.359375 -29 148.765625 -28.40625 C 142.234375 -21.144531 135.664062 -15.816406 129.0625 -12.421875 C 122.46875 -9.023438 115.3125 -8.300781 107.59375 -10.25 C 99.875 -12.195312 91.226562 -17.6875 81.65625 -26.71875 C 80.207031 -28.300781 78.757812 -29.890625 77.3125 -31.484375 C 76.914062 -31.941406 76.550781 -32.367188 76.21875 -32.765625 C 74.632812 -34.546875 72.882812 -34.773438 70.96875 -33.453125 C 68.988281 -32.003906 66.976562 -30.550781 64.9375 -29.09375 C 63.15625 -27.78125 61.335938 -26.5625 59.484375 -25.4375 C 53.347656 -21.21875 46.882812 -17.65625 40.09375 -14.75 C 32.832031 -11.507812 25.207031 -10.253906 17.21875 -10.984375 C 4.75 -12.441406 -1.710938 -19.335938 -2.171875 -31.671875 C -2.304688 -40.378906 -0.445312 -48.179688 3.40625 -55.078125 C 7.269531 -61.972656 12.648438 -67.054688 19.546875 -70.328125 C 26.441406 -73.597656 34.378906 -74.242188 43.359375 -72.265625 C 44.347656 -72.066406 45.664062 -71.769531 47.3125 -71.375 C 48.300781 -71.039062 49.523438 -70.738281 50.984375 -70.46875 C 50.117188 -72.519531 49.320312 -74.335938 48.59375 -75.921875 C 47.28125 -78.554688 46.128906 -80.960938 45.140625 -83.140625 C 39.128906 -95.484375 34.242188 -109.585938 30.484375 -125.453125 C 26.722656 -141.328125 24.875 -157.613281 24.9375 -174.3125 C 25.007812 -191.007812 27.800781 -206.550781 33.3125 -220.9375 C 38.820312 -235.320312 47.976562 -247.164062 60.78125 -256.46875 C 68.894531 -261.945312 77.273438 -264.914062 85.921875 -265.375 C 94.566406 -265.832031 102.734375 -263.953125 110.421875 -259.734375 C 118.109375 -255.515625 124.359375 -249.179688 129.171875 -240.734375 C 135.378906 -229.117188 139.207031 -216.875 140.65625 -204 C 143.289062 -183.21875 142.859375 -163.816406 139.359375 -145.796875 C 135.867188 -127.785156 129.703125 -110.757812 120.859375 -94.71875 C 112.015625 -78.6875 100.765625 -63.113281 87.109375 -48 C 85.785156 -46.550781 85.085938 -45.394531 85.015625 -44.53125 C 84.953125 -43.675781 85.582031 -42.457031 86.90625 -40.875 C 89.675781 -37.25 92.691406 -33.71875 95.953125 -30.28125 C 99.222656 -26.851562 102.875 -23.984375 106.90625 -21.671875 C 112.582031 -19.234375 118.648438 -19.203125 125.109375 -21.578125 C 131.578125 -23.953125 137.566406 -27.644531 143.078125 -32.65625 C 148.585938 -37.675781 152.664062 -42.890625 155.3125 -48.296875 Z M 58.203125 -39.59375 C 59.921875 -41.039062 60.050781 -42.691406 58.59375 -44.546875 C 57.738281 -45.597656 56.882812 -46.6875 56.03125 -47.8125 C 53.65625 -50.71875 50.945312 -53.703125 47.90625 -56.765625 C 44.875 -59.835938 41.722656 -62.164062 38.453125 -63.75 C 35.191406 -65.332031 31.875 -65.460938 28.5 -64.140625 C 23.882812 -61.960938 20.09375 -58.117188 17.125 -52.609375 C 14.15625 -47.097656 12.40625 -41.4375 11.875 -35.625 C 11.351562 -29.820312 12.476562 -25.398438 15.25 -22.359375 C 18.019531 -19.328125 22.734375 -19.035156 29.390625 -21.484375 C 39.890625 -26.097656 49.492188 -32.132812 58.203125 -39.59375 Z M 80.171875 -61.078125 C 94.097656 -77.503906 104.507812 -93.671875 111.40625 -109.578125 C 118.300781 -125.484375 122.96875 -144.09375 125.40625 -165.40625 C 126.132812 -170.613281 126.460938 -177.441406 126.390625 -185.890625 C 126.328125 -194.335938 125.570312 -203.160156 124.125 -212.359375 C 122.675781 -221.566406 120.066406 -229.945312 116.296875 -237.5 C 112.535156 -245.0625 107.273438 -250.507812 100.515625 -253.84375 C 93.753906 -257.175781 85.09375 -257.160156 74.53125 -253.796875 C 62.914062 -246.992188 54.300781 -237.96875 48.6875 -226.71875 C 43.082031 -215.46875 39.882812 -202.945312 39.09375 -189.15625 C 38.300781 -175.363281 39.207031 -161.273438 41.8125 -146.890625 C 44.425781 -132.503906 48.054688 -118.859375 52.703125 -105.953125 C 57.359375 -93.054688 62.359375 -81.828125 67.703125 -72.265625 C 68.296875 -71.066406 68.890625 -69.875 69.484375 -68.6875 C 71.066406 -64.800781 73.378906 -61.273438 76.421875 -58.109375 C 76.878906 -58.503906 77.335938 -58.863281 77.796875 -59.1875 C 78.660156 -59.71875 79.453125 -60.347656 80.171875 -61.078125 Z M 80.171875 -61.078125"/></g></g></g></g></g><g transform="matrix(1, 0, 0, 1, 638, 936)"><g clip-path="url(#0e237a0811)"><g fill-opacity="1" fill="#7a1e1e"><g transform="translate(3.634528, 63.014484)"><g><path d="M 23.28125 -35.421875 C 19.90625 -35.421875 17.289062 -34.148438 15.4375 -31.609375 C 13.59375 -29.078125 12.671875 -25.546875 12.671875 -21.015625 C 12.671875 -11.585938 16.207031 -6.875 23.28125 -6.875 C 26.25 -6.875 29.84375 -7.617188 34.0625 -9.109375 L 34.0625 -1.59375 C 30.59375 -0.144531 26.71875 0.578125 22.4375 0.578125 C 16.289062 0.578125 11.585938 -1.285156 8.328125 -5.015625 C 5.066406 -8.742188 3.4375 -14.097656 3.4375 -21.078125 C 3.4375 -25.472656 4.234375 -29.320312 5.828125 -32.625 C 7.429688 -35.9375 9.734375 -38.472656 12.734375 -40.234375 C 15.734375 -41.992188 19.25 -42.875 23.28125 -42.875 C 27.382812 -42.875 31.507812 -41.882812 35.65625 -39.90625 L 32.765625 -32.609375 C 31.179688 -33.367188 29.585938 -34.023438 27.984375 -34.578125 C 26.390625 -35.140625 24.820312 -35.421875 23.28125 -35.421875 Z M 23.28125 -35.421875"/></g></g></g><g fill-opacity="1" fill="#7a1e1e"><g transform="translate(80.463561, 63.014484)"><g><path d="M 25.15625 0 L 23.453125 -4.390625 L 23.21875 -4.390625 C 21.738281 -2.523438 20.210938 -1.226562 18.640625 -0.5 C 17.066406 0.21875 15.015625 0.578125 12.484375 0.578125 C 9.390625 0.578125 6.945312 -0.304688 5.15625 -2.078125 C 3.375 -3.847656 2.484375 -6.375 2.484375 -9.65625 C 2.484375 -13.09375 3.679688 -15.625 6.078125 -17.25 C 8.484375 -18.875 12.101562 -19.773438 16.9375 -19.953125 L 22.546875 -20.125 L 22.546875 -21.546875 C 22.546875 -24.816406 20.867188 -26.453125 17.515625 -26.453125 C 14.929688 -26.453125 11.898438 -25.671875 8.421875 -24.109375 L 5.5 -30.078125 C 9.21875 -32.023438 13.34375 -33 17.875 -33 C 22.207031 -33 25.53125 -32.050781 27.84375 -30.15625 C 30.15625 -28.269531 31.3125 -25.398438 31.3125 -21.546875 L 31.3125 0 Z M 22.546875 -14.984375 L 19.140625 -14.859375 C 16.578125 -14.785156 14.664062 -14.320312 13.40625 -13.46875 C 12.15625 -12.625 11.53125 -11.332031 11.53125 -9.59375 C 11.53125 -7.113281 12.957031 -5.875 15.8125 -5.875 C 17.851562 -5.875 19.484375 -6.457031 20.703125 -7.625 C 21.929688 -8.800781 22.546875 -10.363281 22.546875 -12.3125 Z M 22.546875 -14.984375"/></g></g></g><g fill-opacity="1" fill="#7a1e1e"><g transform="translate(155.326866, 63.014484)"><g><path d="M 18.25 -6.453125 C 19.789062 -6.453125 21.640625 -6.785156 23.796875 -7.453125 L 23.796875 -0.890625 C 21.597656 0.0859375 18.898438 0.578125 15.703125 0.578125 C 12.171875 0.578125 9.597656 -0.3125 7.984375 -2.09375 C 6.378906 -3.875 5.578125 -6.550781 5.578125 -10.125 L 5.578125 -25.703125 L 1.359375 -25.703125 L 1.359375 -29.4375 L 6.21875 -32.390625 L 8.765625 -39.203125 L 14.40625 -39.203125 L 14.40625 -32.328125 L 23.453125 -32.328125 L 23.453125 -25.703125 L 14.40625 -25.703125 L 14.40625 -10.125 C 14.40625 -8.863281 14.753906 -7.9375 15.453125 -7.34375 C 16.160156 -6.75 17.09375 -6.453125 18.25 -6.453125 Z M 18.25 -6.453125"/></g></g></g><g fill-opacity="1" fill="#7a1e1e"><g transform="translate(220.130265, 63.014484)"><g><path d="M 18.015625 -26.65625 C 16.140625 -26.65625 14.671875 -26.0625 13.609375 -24.875 C 12.554688 -23.695312 11.953125 -22.019531 11.796875 -19.84375 L 24.171875 -19.84375 C 24.128906 -22.019531 23.554688 -23.695312 22.453125 -24.875 C 21.359375 -26.0625 19.878906 -26.65625 18.015625 -26.65625 Z M 19.25 0.578125 C 14.050781 0.578125 9.984375 -0.851562 7.046875 -3.71875 C 4.117188 -6.59375 2.65625 -10.664062 2.65625 -15.9375 C 2.65625 -21.351562 4.007812 -25.539062 6.71875 -28.5 C 9.425781 -31.457031 13.171875 -32.9375 17.953125 -32.9375 C 22.523438 -32.9375 26.082031 -31.632812 28.625 -29.03125 C 31.164062 -26.425781 32.4375 -22.832031 32.4375 -18.25 L 32.4375 -13.96875 L 11.59375 -13.96875 C 11.6875 -11.457031 12.425781 -9.5 13.8125 -8.09375 C 15.207031 -6.6875 17.15625 -5.984375 19.65625 -5.984375 C 21.601562 -5.984375 23.441406 -6.1875 25.171875 -6.59375 C 26.910156 -7 28.726562 -7.644531 30.625 -8.53125 L 30.625 -1.703125 C 29.082031 -0.929688 27.429688 -0.359375 25.671875 0.015625 C 23.921875 0.390625 21.78125 0.578125 19.25 0.578125 Z M 19.25 0.578125"/></g></g></g><g fill-opacity="1" fill="#7a1e1e"><g transform="translate(294.213039, 63.014484)"><g><path d="M 22.671875 -32.9375 C 23.867188 -32.9375 24.859375 -32.847656 25.640625 -32.671875 L 24.984375 -24.40625 C 24.265625 -24.59375 23.394531 -24.6875 22.375 -24.6875 C 19.5625 -24.6875 17.367188 -23.960938 15.796875 -22.515625 C 14.234375 -21.078125 13.453125 -19.054688 13.453125 -16.453125 L 13.453125 0 L 4.625 0 L 4.625 -32.328125 L 11.3125 -32.328125 L 12.609375 -26.890625 L 13.046875 -26.890625 C 14.046875 -28.703125 15.394531 -30.160156 17.09375 -31.265625 C 18.800781 -32.378906 20.660156 -32.9375 22.671875 -32.9375 Z M 22.671875 -32.9375"/></g></g></g><g fill-opacity="1" fill="#7a1e1e"><g transform="translate(360.201636, 63.014484)"><g><path d="M 4.25 -40.6875 C 4.25 -43.5625 5.847656 -45 9.046875 -45 C 12.242188 -45 13.84375 -43.5625 13.84375 -40.6875 C 13.84375 -39.3125 13.441406 -38.242188 12.640625 -37.484375 C 11.847656 -36.722656 10.648438 -36.34375 9.046875 -36.34375 C 5.847656 -36.34375 4.25 -37.789062 4.25 -40.6875 Z M 13.453125 0 L 4.625 0 L 4.625 -32.328125 L 13.453125 -32.328125 Z M 13.453125 0"/></g></g></g><g fill-opacity="1" fill="#7a1e1e"><g transform="translate(417.373384, 63.014484)"><g><path d="M 34.46875 0 L 25.640625 0 L 25.640625 -18.875 C 25.640625 -21.207031 25.222656 -22.957031 24.390625 -24.125 C 23.566406 -25.289062 22.25 -25.875 20.4375 -25.875 C 17.96875 -25.875 16.1875 -25.050781 15.09375 -23.40625 C 14 -21.757812 13.453125 -19.023438 13.453125 -15.203125 L 13.453125 0 L 4.625 0 L 4.625 -32.328125 L 11.359375 -32.328125 L 12.546875 -28.1875 L 13.046875 -28.1875 C 14.023438 -29.75 15.375 -30.929688 17.09375 -31.734375 C 18.820312 -32.535156 20.785156 -32.9375 22.984375 -32.9375 C 26.742188 -32.9375 29.597656 -31.914062 31.546875 -29.875 C 33.492188 -27.84375 34.46875 -24.910156 34.46875 -21.078125 Z M 34.46875 0"/></g></g></g><g fill-opacity="1" fill="#7a1e1e"><g transform="translate(495.387612, 63.014484)"><g><path d="M 32.765625 -32.328125 L 32.765625 -27.84375 L 27.703125 -26.546875 C 28.628906 -25.097656 29.09375 -23.476562 29.09375 -21.6875 C 29.09375 -18.21875 27.878906 -15.515625 25.453125 -13.578125 C 23.035156 -11.640625 19.679688 -10.671875 15.390625 -10.671875 L 13.796875 -10.75 L 12.484375 -10.90625 C 11.578125 -10.207031 11.125 -9.4375 11.125 -8.59375 C 11.125 -7.3125 12.742188 -6.671875 15.984375 -6.671875 L 21.484375 -6.671875 C 25.023438 -6.671875 27.726562 -5.910156 29.59375 -4.390625 C 31.457031 -2.867188 32.390625 -0.632812 32.390625 2.3125 C 32.390625 6.09375 30.8125 9.019531 27.65625 11.09375 C 24.507812 13.175781 19.984375 14.21875 14.078125 14.21875 C 9.566406 14.21875 6.117188 13.429688 3.734375 11.859375 C 1.359375 10.296875 0.171875 8.097656 0.171875 5.265625 C 0.171875 3.316406 0.773438 1.6875 1.984375 0.375 C 3.203125 -0.9375 4.988281 -1.867188 7.34375 -2.421875 C 6.4375 -2.804688 5.644531 -3.4375 4.96875 -4.3125 C 4.300781 -5.195312 3.96875 -6.128906 3.96875 -7.109375 C 3.96875 -8.347656 4.320312 -9.375 5.03125 -10.1875 C 5.738281 -11.007812 6.769531 -11.816406 8.125 -12.609375 C 6.425781 -13.335938 5.082031 -14.507812 4.09375 -16.125 C 3.101562 -17.75 2.609375 -19.660156 2.609375 -21.859375 C 2.609375 -25.390625 3.753906 -28.117188 6.046875 -30.046875 C 8.335938 -31.972656 11.613281 -32.9375 15.875 -32.9375 C 16.78125 -32.9375 17.851562 -32.851562 19.09375 -32.6875 C 20.34375 -32.519531 21.140625 -32.398438 21.484375 -32.328125 Z M 7.8125 4.5625 C 7.8125 5.78125 8.394531 6.734375 9.5625 7.421875 C 10.726562 8.117188 12.359375 8.46875 14.453125 8.46875 C 17.617188 8.46875 20.097656 8.035156 21.890625 7.171875 C 23.679688 6.304688 24.578125 5.117188 24.578125 3.609375 C 24.578125 2.398438 24.046875 1.5625 22.984375 1.09375 C 21.921875 0.632812 20.285156 0.40625 18.078125 0.40625 L 13.5 0.40625 C 11.882812 0.40625 10.53125 0.785156 9.4375 1.546875 C 8.351562 2.304688 7.8125 3.3125 7.8125 4.5625 Z M 11.015625 -21.75 C 11.015625 -19.988281 11.414062 -18.597656 12.21875 -17.578125 C 13.019531 -16.554688 14.238281 -16.046875 15.875 -16.046875 C 17.53125 -16.046875 18.742188 -16.554688 19.515625 -17.578125 C 20.285156 -18.597656 20.671875 -19.988281 20.671875 -21.75 C 20.671875 -25.632812 19.070312 -27.578125 15.875 -27.578125 C 12.632812 -27.578125 11.015625 -25.632812 11.015625 -21.75 Z M 11.015625 -21.75"/></g></g></g></g></g></svg>